{
	"asset":{
		"generator":"Khronos glTF Blender I/O v4.5.47",
		"version":"2.0"
	},
	"scene":0,
	"scenes":[
		{
			"name":"Scene",
			"nodes":[
				0,
				1,
				2,
				3,
				4,
				5,
				6,
				7,
				8
			]
		}
	],
	"nodes":[
		{
			"mesh":0,
			"name":"Sphere",
			"scale":[
				2.03930926322937,
				2.03930926322937,
				2.03930926322937
			]
		},
		{
			"mesh":1,
			"name":"Cone",
			"rotation":[
				0.4340931475162506,
				-0.11852321028709412,
				0.23522135615348816,
				0.8615023493766785
			],
			"scale":[
				1.0362879037857056,
				1.0362879037857056,
				1.036287784576416
			],
			"translation":[
				1.8782916069030762,
				1.449908971786499,
				0.7743834257125854
			]
		},
		{
			"mesh":2,
			"name":"Cone.001",
			"rotation":[
				0.6924042701721191,
				0.14344443380832672,
				-0.1434444636106491,
				0.6924043297767639
			],
			"scale":[
				1.750139594078064,
				3.2624828815460205,
				1.7501394748687744
			],
			"translation":[
				-2.4220075607299805,
				0,
				0.3295247554779053
			]
		},
		{
			"mesh":3,
			"name":"Sphere.001",
			"translation":[
				-1.0874319076538086,
				-1.3345751762390137,
				1.4828612804412842
			]
		},
		{
			"mesh":4,
			"name":"Sphere.002",
			"scale":[
				0.8332303762435913,
				0.8332303762435913,
				0.8332303762435913
			],
			"translation":[
				-3.9707741737365723,
				1.730004906654358,
				-3.031627655029297
			]
		},
		{
			"mesh":5,
			"name":"Sphere.003",
			"translation":[
				-3.723630428314209,
				0.5437158346176147,
				-0.3295248746871948
			]
		},
		{
			"mesh":6,
			"name":"Sphere.004",
			"scale":[
				4.237414360046387,
				4.237414360046387,
				4.237414360046387
			],
			"translation":[
				10.16254711151123,
				5.199901580810547,
				9.549631118774414
			]
		},
		{
			"mesh":7,
			"name":"Cone.002",
			"rotation":[
				0.5002123713493347,
				-0.24613669514656067,
				-0.3464665412902832,
				0.7544304132461548
			],
			"scale":[
				3.003464698791504,
				5.598837852478027,
				3.0034639835357666
			],
			"translation":[
				-11.180779457092285,
				-7.097964286804199,
				0.32952404022216797
			]
		},
		{
			"mesh":8,
			"name":"Sphere.005",
			"scale":[
				2.03930926322937,
				2.03930926322937,
				2.03930926322937
			],
			"translation":[
				-9.154200553894043,
				-6.247790813446045,
				3.875211238861084
			]
		}
	],
	"materials":[
		{
			"doubleSided":true,
			"name":"primary",
			"pbrMetallicRoughness":{
				"baseColorFactor":[
					1,
					0.14702743291854858,
					0.035601381212472916,
					1
				],
				"metallicFactor":0,
				"roughnessFactor":0.5
			}
		},
		{
			"doubleSided":true,
			"name":"secondary",
			"pbrMetallicRoughness":{
				"baseColorFactor":[
					0.021218709647655487,
					0.08650052547454834,
					0.14702732861042023,
					1
				],
				"metallicFactor":0,
				"roughnessFactor":0.5
			}
		},
		{
			"doubleSided":true,
			"name":"tertiary",
			"pbrMetallicRoughness":{
				"baseColorFactor":[
					0.8713618516921997,
					0.6239612698554993,
					0.1301366537809372,
					1
				],
				"metallicFactor":0,
				"roughnessFactor":0.5
			}
		}
	],
	"meshes":[
		{
			"name":"Sphere.003",
			"primitives":[
				{
					"attributes":{
						"POSITION":0,
						"NORMAL":1,
						"TEXCOORD_0":2
					},
					"indices":3,
					"material":0
				}
			]
		},
		{
			"name":"Cone.002",
			"primitives":[
				{
					"attributes":{
						"POSITION":4,
						"NORMAL":5,
						"TEXCOORD_0":6
					},
					"indices":7,
					"material":1
				}
			]
		},
		{
			"name":"Cone.004",
			"primitives":[
				{
					"attributes":{
						"POSITION":8,
						"NORMAL":9,
						"TEXCOORD_0":10
					},
					"indices":7,
					"material":2
				}
			]
		},
		{
			"name":"Sphere.004",
			"primitives":[
				{
					"attributes":{
						"POSITION":11,
						"NORMAL":12,
						"TEXCOORD_0":13
					},
					"indices":14,
					"material":0
				}
			]
		},
		{
			"name":"Sphere.005",
			"primitives":[
				{
					"attributes":{
						"POSITION":15,
						"NORMAL":16,
						"TEXCOORD_0":17
					},
					"indices":14,
					"material":1
				}
			]
		},
		{
			"name":"Sphere.006",
			"primitives":[
				{
					"attributes":{
						"POSITION":18,
						"NORMAL":19,
						"TEXCOORD_0":20
					},
					"indices":14,
					"material":0
				}
			]
		},
		{
			"name":"Sphere.007",
			"primitives":[
				{
					"attributes":{
						"POSITION":21,
						"NORMAL":22,
						"TEXCOORD_0":23
					},
					"indices":3,
					"material":0
				}
			]
		},
		{
			"name":"Cone.005",
			"primitives":[
				{
					"attributes":{
						"POSITION":24,
						"NORMAL":25,
						"TEXCOORD_0":26
					},
					"indices":7,
					"material":1
				}
			]
		},
		{
			"name":"Sphere.008",
			"primitives":[
				{
					"attributes":{
						"POSITION":27,
						"NORMAL":28,
						"TEXCOORD_0":29
					},
					"indices":3,
					"material":2
				}
			]
		}
	],
	"accessors":[
		{
			"bufferView":0,
			"componentType":5126,
			"count":1984,
			"max":[
				0.9999997019767761,
				1,
				0.9999993443489075
			],
			"min":[
				-0.9999990463256836,
				-1,
				-1
			],
			"type":"VEC3"
		},
		{
			"bufferView":1,
			"componentType":5126,
			"count":1984,
			"type":"VEC3"
		},
		{
			"bufferView":2,
			"componentType":5126,
			"count":1984,
			"type":"VEC2"
		},
		{
			"bufferView":3,
			"componentType":5123,
			"count":2880,
			"type":"SCALAR"
		},
		{
			"bufferView":4,
			"componentType":5126,
			"count":128,
			"max":[
				1,
				1,
				1
			],
			"min":[
				-1,
				-1,
				-1
			],
			"type":"VEC3"
		},
		{
			"bufferView":5,
			"componentType":5126,
			"count":128,
			"type":"VEC3"
		},
		{
			"bufferView":6,
			"componentType":5126,
			"count":128,
			"type":"VEC2"
		},
		{
			"bufferView":7,
			"componentType":5123,
			"count":186,
			"type":"SCALAR"
		},
		{
			"bufferView":8,
			"componentType":5126,
			"count":128,
			"max":[
				1,
				1,
				1
			],
			"min":[
				-1,
				-1,
				-1
			],
			"type":"VEC3"
		},
		{
			"bufferView":9,
			"componentType":5126,
			"count":128,
			"type":"VEC3"
		},
		{
			"bufferView":10,
			"componentType":5126,
			"count":128,
			"type":"VEC2"
		},
		{
			"bufferView":11,
			"componentType":5126,
			"count":1984,
			"max":[
				0.9999997019767761,
				1,
				0.9999993443489075
			],
			"min":[
				-0.9999990463256836,
				-1,
				-1
			],
			"type":"VEC3"
		},
		{
			"bufferView":12,
			"componentType":5126,
			"count":1984,
			"type":"VEC3"
		},
		{
			"bufferView":13,
			"componentType":5126,
			"count":1984,
			"type":"VEC2"
		},
		{
			"bufferView":14,
			"componentType":5123,
			"count":2880,
			"type":"SCALAR"
		},
		{
			"bufferView":15,
			"componentType":5126,
			"count":1984,
			"max":[
				0.9999997019767761,
				1,
				0.9999993443489075
			],
			"min":[
				-0.9999990463256836,
				-1,
				-1
			],
			"type":"VEC3"
		},
		{
			"bufferView":16,
			"componentType":5126,
			"count":1984,
			"type":"VEC3"
		},
		{
			"bufferView":17,
			"componentType":5126,
			"count":1984,
			"type":"VEC2"
		},
		{
			"bufferView":18,
			"componentType":5126,
			"count":1984,
			"max":[
				0.9999997019767761,
				1,
				0.9999993443489075
			],
			"min":[
				-0.9999990463256836,
				-1,
				-1
			],
			"type":"VEC3"
		},
		{
			"bufferView":19,
			"componentType":5126,
			"count":1984,
			"type":"VEC3"
		},
		{
			"bufferView":20,
			"componentType":5126,
			"count":1984,
			"type":"VEC2"
		},
		{
			"bufferView":21,
			"componentType":5126,
			"count":1984,
			"max":[
				0.9999997019767761,
				1,
				0.9999993443489075
			],
			"min":[
				-0.9999990463256836,
				-1,
				-1
			],
			"type":"VEC3"
		},
		{
			"bufferView":22,
			"componentType":5126,
			"count":1984,
			"type":"VEC3"
		},
		{
			"bufferView":23,
			"componentType":5126,
			"count":1984,
			"type":"VEC2"
		},
		{
			"bufferView":24,
			"componentType":5126,
			"count":128,
			"max":[
				1,
				1,
				1
			],
			"min":[
				-1,
				-1,
				-1
			],
			"type":"VEC3"
		},
		{
			"bufferView":25,
			"componentType":5126,
			"count":128,
			"type":"VEC3"
		},
		{
			"bufferView":26,
			"componentType":5126,
			"count":128,
			"type":"VEC2"
		},
		{
			"bufferView":27,
			"componentType":5126,
			"count":1984,
			"max":[
				0.9999997019767761,
				1,
				0.9999993443489075
			],
			"min":[
				-0.9999990463256836,
				-1,
				-1
			],
			"type":"VEC3"
		},
		{
			"bufferView":28,
			"componentType":5126,
			"count":1984,
			"type":"VEC3"
		},
		{
			"bufferView":29,
			"componentType":5126,
			"count":1984,
			"type":"VEC2"
		}
	],
	"bufferViews":[
		{
			"buffer":0,
			"byteLength":23808,
			"byteOffset":0,
			"target":34962
		},
		{
			"buffer":0,
			"byteLength":23808,
			"byteOffset":23808,
			"target":34962
		},
		{
			"buffer":0,
			"byteLength":15872,
			"byteOffset":47616,
			"target":34962
		},
		{
			"buffer":0,
			"byteLength":5760,
			"byteOffset":63488,
			"target":34963
		},
		{
			"buffer":0,
			"byteLength":1536,
			"byteOffset":69248,
			"target":34962
		},
		{
			"buffer":0,
			"byteLength":1536,
			"byteOffset":70784,
			"target":34962
		},
		{
			"buffer":0,
			"byteLength":1024,
			"byteOffset":72320,
			"target":34962
		},
		{
			"buffer":0,
			"byteLength":372,
			"byteOffset":73344,
			"target":34963
		},
		{
			"buffer":0,
			"byteLength":1536,
			"byteOffset":73716,
			"target":34962
		},
		{
			"buffer":0,
			"byteLength":1536,
			"byteOffset":75252,
			"target":34962
		},
		{
			"buffer":0,
			"byteLength":1024,
			"byteOffset":76788,
			"target":34962
		},
		{
			"buffer":0,
			"byteLength":23808,
			"byteOffset":77812,
			"target":34962
		},
		{
			"buffer":0,
			"byteLength":23808,
			"byteOffset":101620,
			"target":34962
		},
		{
			"buffer":0,
			"byteLength":15872,
			"byteOffset":125428,
			"target":34962
		},
		{
			"buffer":0,
			"byteLength":5760,
			"byteOffset":141300,
			"target":34963
		},
		{
			"buffer":0,
			"byteLength":23808,
			"byteOffset":147060,
			"target":34962
		},
		{
			"buffer":0,
			"byteLength":23808,
			"byteOffset":170868,
			"target":34962
		},
		{
			"buffer":0,
			"byteLength":15872,
			"byteOffset":194676,
			"target":34962
		},
		{
			"buffer":0,
			"byteLength":23808,
			"byteOffset":210548,
			"target":34962
		},
		{
			"buffer":0,
			"byteLength":23808,
			"byteOffset":234356,
			"target":34962
		},
		{
			"buffer":0,
			"byteLength":15872,
			"byteOffset":258164,
			"target":34962
		},
		{
			"buffer":0,
			"byteLength":23808,
			"byteOffset":274036,
			"target":34962
		},
		{
			"buffer":0,
			"byteLength":23808,
			"byteOffset":297844,
			"target":34962
		},
		{
			"buffer":0,
			"byteLength":15872,
			"byteOffset":321652,
			"target":34962
		},
		{
			"buffer":0,
			"byteLength":1536,
			"byteOffset":337524,
			"target":34962
		},
		{
			"buffer":0,
			"byteLength":1536,
			"byteOffset":339060,
			"target":34962
		},
		{
			"buffer":0,
			"byteLength":1024,
			"byteOffset":340596,
			"target":34962
		},
		{
			"buffer":0,
			"byteLength":23808,
			"byteOffset":341620,
			"target":34962
		},
		{
			"buffer":0,
			"byteLength":23808,
			"byteOffset":365428,
			"target":34962
		},
		{
			"buffer":0,
			"byteLength":15872,
			"byteOffset":389236,
			"target":34962
		}
	],
	"buffers":[
		{
			"byteLength":405108,
			"uri":"outerBlobs.bin"
		}
	]
}
